<?xml version="1.0" encoding="UTF-8" standalone="no"?>
<!-- Created with Inkscape (http://www.inkscape.org/) -->

<svg
   xmlns:dc="http://purl.org/dc/elements/1.1/"
   xmlns:cc="http://creativecommons.org/ns#"
   xmlns:rdf="http://www.w3.org/1999/02/22-rdf-syntax-ns#"
   xmlns:svg="http://www.w3.org/2000/svg"
   xmlns="http://www.w3.org/2000/svg"
   xmlns:sodipodi="http://sodipodi.sourceforge.net/DTD/sodipodi-0.dtd"
   xmlns:inkscape="http://www.inkscape.org/namespaces/inkscape"
   width="48"
   height="65"
   viewBox="0 0 48.000001 65"
   id="svg2"
   version="1.1"
   inkscape:version="0.92.4 5da689c313, 2019-01-14"
   sodipodi:docname="icon.svg"
   inkscape:export-filename="/home/josh/src/yarnball2/favicon.png"
   inkscape:export-xdpi="100"
   inkscape:export-ydpi="100">
  <defs
     id="defs4" />
  <sodipodi:namedview
     id="base"
     pagecolor="#ffffff"
     bordercolor="#666666"
     borderopacity="1.0"
     inkscape:pageopacity="0.0"
     inkscape:pageshadow="2"
     inkscape:zoom="5.6568542"
     inkscape:cx="19.142116"
     inkscape:cy="29.069908"
     inkscape:document-units="px"
     inkscape:current-layer="layer1"
     showgrid="false"
     inkscape:window-width="923"
     inkscape:window-height="708"
     inkscape:window-x="171"
     inkscape:window-y="351"
     inkscape:window-maximized="0"
     units="px"
     borderlayer="true" />
  <metadata
     id="metadata7">
    <rdf:RDF>
      <cc:Work
         rdf:about="">
        <dc:format>image/svg+xml</dc:format>
        <dc:type
           rdf:resource="http://purl.org/dc/dcmitype/StillImage" />
        <dc:title></dc:title>
      </cc:Work>
    </rdf:RDF>
  </metadata>
  <g
     inkscape:groupmode="layer"
     id="layer6"
     inkscape:label="white background"
     style="display:inline"
     sodipodi:insensitive="true"
     transform="translate(0,17)">
    <rect
       style="fill:#ffffff;fill-opacity:1;stroke:none;stroke-width:10;stroke-miterlimit:4;stroke-dasharray:none;stroke-opacity:1"
       id="rect4156"
       width="49.107143"
       height="50"
       x="0"
       y="-0.035713989" />
    <path
       sodipodi:nodetypes="ccssccssc"
       inkscape:connector-curvature="0"
       id="path4440"
       d="m 14.994317,32.4563 3.463554,-1.12695 c 0,0 -0.726241,-5.558151 -0.270809,-11.900159 0.278441,-3.8773 1.05831,-8.037334 2.534515,-11.5022421 3.890794,-9.1323724 7.096303,1.7545813 7.096303,1.7545813 l 3.421441,-1.0819928 c 0,0 -4.122354,-13.1261285 -11.652732,-5.6997575 -1.97476,1.9474904 -4.268577,8.7038611 -4.796454,14.4938151 -0.700854,7.68725 0.204182,15.062705 0.204182,15.062705 z"
       style="display:inline;fill:#333f4f;fill-opacity:0;fill-rule:evenodd;stroke:none;stroke-width:1px;stroke-linecap:butt;stroke-linejoin:miter;stroke-opacity:1" />
  </g>
  <g
     inkscape:groupmode="layer"
     id="layer1"
     inkscape:label="logo"
     style="display:inline"
     transform="translate(0,17)">
    <path
       sodipodi:nodetypes="ccssccssc"
       inkscape:connector-curvature="0"
       id="path4440-6"
       d="m 14.573772,32.396722 3.456307,-1.124591 c 0,0 -0.724721,-5.546522 -0.270241,-11.875258 0.277857,-3.869188 1.056093,-8.020518 2.52921,-11.4781758 3.882653,-9.1132622 7.081454,1.7509099 7.081454,1.7509099 l 3.414281,-1.0797287 c 0,0 -4.113729,-13.0986607 -11.628348,-5.6878302 -1.970628,1.9434149 -4.259645,8.6856478 -4.786418,14.4634868 -0.699388,7.671165 0.203755,15.031187 0.203755,15.031187 z"
       style="display:inline;fill:#333f4f;fill-opacity:0;fill-rule:evenodd;stroke:none;stroke-width:1px;stroke-linecap:butt;stroke-linejoin:miter;stroke-opacity:1" />
    <path
       sodipodi:nodetypes="ccsssccsssc"
       inkscape:connector-curvature="0"
       id="path4442"
       d="m 12.187029,24.899468 0.02751,-4.677192 c 0,0 -11.4384102,8.610061 -9.162228,14.816058 2.2761858,6.206 16.134853,4.351218 30.898136,-6.481693 11.870318,-8.71015 11.954499,-16.222574 7.626177,-18.058547 -3.311132,-1.4044987 -6.785917,-0.6874569 -6.785917,-0.6874569 -0.528328,1.0972899 -0.979023,2.1284709 -1.042006,3.5101079 0,0 4.913773,-1.261748 6.578518,0.696954 2.06638,2.431278 -5.363768,10.116677 -12.917808,14.717363 -8.458068,5.151272 -18.512495,7.948712 -20.8160831,5.403645 -2.1073858,-2.328292 5.5936991,-9.239239 5.5936991,-9.239239 z"
       style="display:inline;fill:#333f4f;fill-opacity:1;fill-rule:evenodd;stroke:none;stroke-width:1px;stroke-linecap:butt;stroke-linejoin:miter;stroke-opacity:1" />
    <path
       sodipodi:nodetypes="cccccsccssc"
       inkscape:connector-curvature="0"
       id="path4444"
       d="m 14.566761,32.432726 3.456307,-1.124593 c 0,0 -0.319783,-1.716305 -0.43054,-4.834752 l -2.450623,-1.429421 2.500869,-5.225901 c 0.277856,-3.869187 1.166146,-8.405705 2.639263,-11.8633647 3.882654,-9.113261 7.180107,1.6241718 7.180107,1.6241718 0.770214,-0.5429497 1.994629,-1.8226681 2.61559,-3.1103911 0,0 -3.378895,-10.9058058 -10.928309,-3.5304303 -2.586457,2.5268306 -4.259646,8.6856493 -4.78642,14.4634943 -0.699387,7.671151 0.203756,15.031187 0.203756,15.031187 z"
       style="color:#000000;clip-rule:nonzero;display:inline;overflow:visible;visibility:visible;opacity:1;isolation:auto;mix-blend-mode:normal;color-interpolation:sRGB;color-interpolation-filters:linearRGB;solid-color:#000000;solid-opacity:1;fill:#333f4f;fill-opacity:1;fill-rule:evenodd;stroke:none;stroke-width:1px;stroke-linecap:butt;stroke-linejoin:miter;stroke-miterlimit:4;stroke-dasharray:none;stroke-dashoffset:0;stroke-opacity:1;color-rendering:auto;image-rendering:auto;shape-rendering:auto;text-rendering:auto;enable-background:accumulate" />
    <path
       sodipodi:nodetypes="ccsccsc"
       inkscape:connector-curvature="0"
       id="path4446"
       d="m 33.86833,34.707615 -0.802496,3.496955 c 0,0 7.722986,2.043212 10.33521,-2.115686 C 46.320547,31.440789 40.405048,25.48615 40.405048,25.48615 l -2.645816,2.45128 c 0,0 3.744259,4.093283 2.684711,6.030906 -1.00953,1.846187 -6.575613,0.739279 -6.575613,0.739279 z"
       style="color:#000000;clip-rule:nonzero;display:inline;overflow:visible;visibility:visible;opacity:1;isolation:auto;mix-blend-mode:normal;color-interpolation:sRGB;color-interpolation-filters:linearRGB;solid-color:#000000;solid-opacity:1;fill:#333f4f;fill-opacity:1;fill-rule:evenodd;stroke:none;stroke-width:0.5;stroke-linecap:butt;stroke-linejoin:miter;stroke-miterlimit:4;stroke-dasharray:none;stroke-dashoffset:0;stroke-opacity:1;color-rendering:auto;image-rendering:auto;shape-rendering:auto;text-rendering:auto;enable-background:accumulate" />
    <path
       sodipodi:nodetypes="ccsccsc"
       inkscape:connector-curvature="0"
       id="path4448"
       d="M 32.448139,31.983975 28.42105,34.47902 c 0,0 -1.504222,8.712016 -4.844184,9.469498 -2.043915,0.463543 -3.968728,-5.433519 -3.968728,-5.433519 l -3.424002,1.095162 c 0,0 2.60623,8.416887 7.723457,7.918002 6.984175,-0.680912 8.540546,-15.544188 8.540546,-15.544188 z"
       style="color:#000000;clip-rule:nonzero;display:inline;overflow:visible;visibility:visible;opacity:1;isolation:auto;mix-blend-mode:normal;color-interpolation:sRGB;color-interpolation-filters:linearRGB;solid-color:#000000;solid-opacity:1;fill:#333f4f;fill-opacity:1;fill-rule:evenodd;stroke:none;stroke-width:0.5;stroke-linecap:butt;stroke-linejoin:miter;stroke-miterlimit:4;stroke-dasharray:none;stroke-dashoffset:0;stroke-opacity:1;color-rendering:auto;image-rendering:auto;shape-rendering:auto;text-rendering:auto;enable-background:accumulate" />
    <path
       sodipodi:nodetypes="ccsccsc"
       inkscape:connector-curvature="0"
       id="path4450"
       d="m 13.8885,9.9419701 -0.778182,3.5212739 c 0,0 -5.9530923,-1.186727 -6.6923658,0.914363 -0.6984404,1.985037 2.7625448,5.875278 2.7625448,5.875278 l -2.6069085,2.451267 c 0,0 -5.7952993,-6.098069 -2.9959981,-10.583271 C 5.9927461,8.2511663 13.8885,9.9419701 13.8885,9.9419701 Z"
       style="color:#000000;clip-rule:nonzero;display:inline;overflow:visible;visibility:visible;opacity:1;isolation:auto;mix-blend-mode:normal;color-interpolation:sRGB;color-interpolation-filters:linearRGB;solid-color:#000000;solid-opacity:1;fill:#333f4f;fill-opacity:1;fill-rule:evenodd;stroke:none;stroke-width:1px;stroke-linecap:butt;stroke-linejoin:miter;stroke-miterlimit:4;stroke-dasharray:none;stroke-dashoffset:0;stroke-opacity:1;color-rendering:auto;image-rendering:auto;shape-rendering:auto;text-rendering:auto;enable-background:accumulate" />
    <path
       sodipodi:nodetypes="zzssssssssccssssccssssccsszz"
       inkscape:connector-curvature="0"
       id="path4436-2"
       d="m 46.907217,-16.665081 c -3.340003,-1.92836 -4.674483,4.582118 -8.608909,11.3967245 -3.934413,6.8146129 -7.682612,14.3543182 -10.258747,15.5529105 -2.904438,1.351336 -5.02246,2.056811 -6.90079,5.310172 -1.700159,2.944759 -5.252786,9.108428 -4.964558,9.274845 l 0.811278,0.468392 c 0.459481,0.265272 2.220914,-2.969469 3.477144,-4.966839 1.764605,-2.805658 2.453348,-4.160532 3.308257,-4.459318 0.125751,-0.04395 0.575574,0.222048 0.598762,0.345706 0.163347,0.870846 -0.747675,2.113209 -2.403713,4.981553 -1.267858,2.19599 -2.8335,4.860489 -2.717081,5.405645 l 0.970464,0.5603 c 0.512721,-0.149847 1.557647,-2.299125 3.192671,-5.131063 1.656038,-2.868344 2.414496,-4.198791 3.263442,-4.485197 0.125244,-0.04226 0.645176,0.274089 0.682669,0.394143 0.295919,0.947389 -0.634731,2.178422 -2.290775,5.046766 -1.640445,2.841338 -2.849339,4.941505 -2.715263,5.406695 l 0.90554,0.522818 c 0.412557,-0.03606 1.816619,-2.351463 3.364243,-5.032012 1.411909,-2.44551 2.358622,-4.23106 3.204379,-4.519293 0.109164,-0.03721 0.619977,0.284537 0.638024,0.355727 0.23478,0.924728 -0.553039,2.238216 -2.209077,5.10656 -0.967759,1.676218 -2.252181,3.891915 -2.252181,3.891915 L 29.1134,26.886465 c 0,0 2.240018,-3.712248 2.968368,-4.9738 1.889515,-3.272742 0.731823,-5.69314 0.694459,-8.893392 -0.03147,-2.694854 4.528498,-9.6665908 8.509909,-16.5626032 3.981424,-6.8960108 8.96111,-11.1933898 5.621081,-13.1217508 z"
       style="color:#000000;clip-rule:nonzero;display:inline;overflow:visible;visibility:visible;opacity:1;isolation:auto;mix-blend-mode:normal;color-interpolation:sRGB;color-interpolation-filters:linearRGB;solid-color:#000000;solid-opacity:1;fill:#333f4f;fill-opacity:1;fill-rule:evenodd;stroke:none;stroke-width:1px;stroke-linecap:butt;stroke-linejoin:miter;stroke-miterlimit:4;stroke-dasharray:none;stroke-dashoffset:0;stroke-opacity:1;color-rendering:auto;image-rendering:auto;shape-rendering:auto;text-rendering:auto;enable-background:accumulate" />
    <path
       style="color:#000000;clip-rule:nonzero;display:inline;overflow:visible;visibility:visible;opacity:1;isolation:auto;mix-blend-mode:normal;color-interpolation:sRGB;color-interpolation-filters:linearRGB;solid-color:#000000;solid-opacity:1;fill:#333f4f;fill-opacity:1;fill-rule:evenodd;stroke:none;stroke-width:1px;stroke-linecap:butt;stroke-linejoin:miter;stroke-miterlimit:4;stroke-dasharray:none;stroke-dashoffset:0;stroke-opacity:1;color-rendering:auto;image-rendering:auto;shape-rendering:auto;text-rendering:auto;enable-background:accumulate"
       d="m 46.907217,-16.665081 c -3.340003,-1.92836 -4.674483,4.582118 -8.608909,11.3967245 -3.934413,6.8146129 -7.682612,14.3543182 -10.258747,15.5529105 -2.904438,1.351336 -5.02246,2.056811 -6.90079,5.310172 -1.700159,2.944759 -5.252786,9.108428 -4.964558,9.274845 l 0.811278,0.468392 c 0.459481,0.265272 2.220914,-2.969469 3.477144,-4.966839 1.764605,-2.805658 2.453348,-4.160532 3.308257,-4.459318 0.125751,-0.04395 0.575574,0.222048 0.598762,0.345706 0.163347,0.870846 -0.747675,2.113209 -2.403713,4.981553 -1.267858,2.19599 -2.8335,4.860489 -2.717081,5.405645 l 0.970464,0.5603 c 0.512721,-0.149847 1.557647,-2.299125 3.192671,-5.131063 1.656038,-2.868344 2.414496,-4.198791 3.263442,-4.485197 0.125244,-0.04226 0.645176,0.274089 0.682669,0.394143 0.295919,0.947389 -0.634731,2.178422 -2.290775,5.046766 -1.640445,2.841338 -2.849339,4.941505 -2.715263,5.406695 l 0.90554,0.522818 c 0.412557,-0.03606 1.816619,-2.351463 3.364243,-5.032012 1.411909,-2.44551 2.358622,-4.23106 3.204379,-4.519293 0.109164,-0.03721 0.619977,0.284537 0.638024,0.355727 0.23478,0.924728 -0.553039,2.238216 -2.209077,5.10656 -0.967759,1.676218 -2.252181,3.891915 -2.252181,3.891915 L 29.1134,26.886465 c 0,0 2.240018,-3.712248 2.968368,-4.9738 1.889515,-3.272742 0.731823,-5.69314 0.694459,-8.893392 -0.03147,-2.694854 4.528498,-9.6665908 8.509909,-16.5626032 3.981424,-6.8960108 8.96111,-11.1933898 5.621081,-13.1217508 z"
       id="path824"
       inkscape:connector-curvature="0"
       sodipodi:nodetypes="zzssssssssccssssccssssccsszz" />
  </g>
  <g
     inkscape:label="fork"
     id="g4166"
     inkscape:groupmode="layer"
     style="display:none"
     transform="translate(0,17)">
    <path
       sodipodi:nodetypes="czssssssssccssssccssssscsszzc"
       inkscape:connector-curvature="0"
       id="path4436"
       d="m 25.097553,87.70441 c 6.562575,1.4e-5 2.989989,-10.72939 2.990008,-24.119002 -1.2e-5,-13.389604 -0.891338,-27.689298 1.885166,-31.647349 3.130347,-4.462465 5.651305,-7.304085 5.651309,-13.696412 0,-5.785976 -0.0088,-17.89151168 -0.575121,-17.89152188 h -1.594033 c -0.902797,1.19e-5 -0.746378,6.26544778 -0.898232,10.27762688 -0.213318,5.635825 -0.07555,8.218386 -1.081155,9.386042 -0.147916,0.171767 -1.0371,0.162486 -1.17648,-1.6e-5 -0.981627,-1.144326 -0.696121,-3.750204 -0.696123,-9.386035 2e-6,-4.3147652 0.04023,-9.5732951 -0.595156,-10.27760258 l -1.906807,-3.4e-6 C 26.472861,1.0071779 26.761631,5.0634365 26.761628,10.62774 c 2e-6,5.635832 0.01427,8.24171 -0.993096,9.386047 -0.148613,0.168837 -1.183946,0.145013 -1.341337,-2e-6 -1.242114,-1.144335 -0.918043,-3.750215 -0.918038,-9.38605 -3e-6,-5.5827664 -0.0054,-9.70616038 -0.598725,-10.27760308 l -1.779243,-1.02e-5 C 20.553905,0.75425842 20.454792,5.360887 20.45478,10.627738 c 1.1e-5,4.805024 0.124059,8.241724 -0.877052,9.386043 -0.129204,0.147712 -1.155699,0.108165 -1.242863,0.01861 -1.132736,-1.162952 -1.089298,-3.768824 -1.089302,-9.404652 -5e-6,-3.2934919 0.08938,-10.17651028 -0.566924,-10.17045828 l -2.015545,0.018586 c -0.910001,0 -0.540315,15.28703928 -0.540315,17.76577328 0,6.430407 3.765286,9.012208 6.54312,13.696403 2.339162,3.944434 1.551009,18.097806 1.551015,31.647353 -8e-6,13.54955 -3.682008,24.119006 2.880596,24.119006 z"
       style="color:#000000;clip-rule:nonzero;display:inline;overflow:visible;visibility:visible;opacity:1;isolation:auto;mix-blend-mode:normal;color-interpolation:sRGB;color-interpolation-filters:linearRGB;solid-color:#000000;solid-opacity:1;fill:#333f4f;fill-opacity:1;fill-rule:evenodd;stroke:none;stroke-width:1px;stroke-linecap:butt;stroke-linejoin:miter;stroke-miterlimit:4;stroke-dasharray:none;stroke-dashoffset:0;stroke-opacity:1;color-rendering:auto;image-rendering:auto;shape-rendering:auto;text-rendering:auto;enable-background:accumulate" />
  </g>
</svg>
