<?xml version="1.0" encoding="UTF-8" standalone="no"?>
<!-- Created with Inkscape (http://www.inkscape.org/) -->

<svg
   xmlns:dc="http://purl.org/dc/elements/1.1/"
   xmlns:cc="http://creativecommons.org/ns#"
   xmlns:rdf="http://www.w3.org/1999/02/22-rdf-syntax-ns#"
   xmlns:svg="http://www.w3.org/2000/svg"
   xmlns="http://www.w3.org/2000/svg"
   xmlns:sodipodi="http://sodipodi.sourceforge.net/DTD/sodipodi-0.dtd"
   xmlns:inkscape="http://www.inkscape.org/namespaces/inkscape"
   width="48"
   height="48"
   viewBox="0 0 48.000001 48"
   id="svg2"
   version="1.1"
   inkscape:version="0.92.2 2405546, 2018-03-11"
   sodipodi:docname="favicon.svg"
   inkscape:export-filename="/home/josh/src/yarnball2/favicon.png"
   inkscape:export-xdpi="120"
   inkscape:export-ydpi="120">
  <defs
     id="defs4" />
  <sodipodi:namedview
     id="base"
     pagecolor="#ffffff"
     bordercolor="#666666"
     borderopacity="1.0"
     inkscape:pageopacity="0.0"
     inkscape:pageshadow="2"
     inkscape:zoom="1"
     inkscape:cx="23.125618"
     inkscape:cy="38.701333"
     inkscape:document-units="px"
     inkscape:current-layer="layer1"
     showgrid="false"
     inkscape:window-width="923"
     inkscape:window-height="708"
     inkscape:window-x="2003"
     inkscape:window-y="145"
     inkscape:window-maximized="0"
     units="px"
     borderlayer="true"
     inkscape:pagecheckerboard="true"
     inkscape:snap-global="false" />
  <metadata
     id="metadata7">
    <rdf:RDF>
      <cc:Work
         rdf:about="">
        <dc:format>image/svg+xml</dc:format>
        <dc:type
           rdf:resource="http://purl.org/dc/dcmitype/StillImage" />
        <dc:title></dc:title>
      </cc:Work>
    </rdf:RDF>
  </metadata>
  <g
     inkscape:groupmode="layer"
     id="layer1"
     inkscape:label="logo"
     style="display:inline">
    <path
       sodipodi:nodetypes="ccssccssc"
       inkscape:connector-curvature="0"
       id="path4440-6"
       d="m 15.183147,31.689615 3.456307,-1.124591 c 0,0 -0.724721,-5.546522 -0.270241,-11.875258 0.277857,-3.869188 1.056093,-8.020518 2.52921,-11.4781756 3.882653,-9.1132622 7.081454,1.7509099 7.081454,1.7509099 l 3.414281,-1.0797287 c 0,0 -4.113729,-13.0986607 -11.628348,-5.6878302 -1.970628,1.9434149 -4.259645,8.6856476 -4.786418,14.4634866 -0.699388,7.671165 0.203755,15.031187 0.203755,15.031187 z"
       style="display:inline;fill:#333f4f;fill-opacity:0;fill-rule:evenodd;stroke:none;stroke-width:1px;stroke-linecap:butt;stroke-linejoin:miter;stroke-opacity:1" />
    <path
       sodipodi:nodetypes="czssssssssccsccsccssszzc"
       inkscape:connector-curvature="0"
       id="path4436-2"
       d="m 23.996179,82.038067 c 6.054141,1.1e-5 2.75834,-9.898137 2.758354,-22.250393 -8e-6,-12.352254 -0.82228,-25.544087 1.739115,-29.195494 2.887826,-4.116736 5.213474,-6.738203 5.213478,-12.635291 10e-7,-5.337711 -0.0097,-16.5053858 -0.634539,-16.5053863 l -1.758715,-1.5e-6 c -0.996067,-8e-7 -0.823486,5.7800365 -0.99103,9.4813768 -0.235357,5.199191 -0.08335,7.581672 -1.192852,8.658864 -0.163201,0.158449 -2.090411,0.149898 -2.272832,-1.3e-5 -1.284753,-1.055672 -0.911084,-3.459662 -0.911085,-8.65886 3e-6,-3.9804834 0.05265,-8.8316121 -0.778937,-9.4813538 l -2.495624,-3.1e-6 c -0.822017,0.6061382 -0.444073,4.3481417 -0.444078,9.4813529 1e-6,5.199198 0.01871,7.60319 -1.299763,8.658872 -5.017993,0.161805 0.46996,0.166746 -2.545247,0.01716 -1.213062,-1.072857 -1.166542,-3.476838 -1.166543,-8.676035 -1.2e-5,-3.038331 -0.276529,-9.4143744 -0.276529,-9.4143744 l -2.630227,-0.010361 c 0,0 -0.33761,4.9042277 -0.381128,9.4073004 -0.03044,3.148549 -0.05628,6.100438 -0.05628,7.041387 4.8e-5,5.932213 3.473575,8.313993 6.036198,12.635283 2.157932,3.638844 1.430846,16.695692 1.430851,29.195495 -1.4e-5,12.499808 -3.396751,22.250402 2.657425,22.250395 z"
       style="color:#000000;clip-rule:nonzero;display:inline;overflow:visible;visibility:visible;opacity:1;isolation:auto;mix-blend-mode:normal;color-interpolation:sRGB;color-interpolation-filters:linearRGB;solid-color:#000000;solid-opacity:1;fill:#333f4f;fill-opacity:1;fill-rule:evenodd;stroke:none;stroke-width:0.99999994px;stroke-linecap:butt;stroke-linejoin:miter;stroke-miterlimit:4;stroke-dasharray:none;stroke-dashoffset:0;stroke-opacity:1;color-rendering:auto;image-rendering:auto;shape-rendering:auto;text-rendering:auto;enable-background:accumulate" />
    <path
       style="display:inline;fill:#333f4f;fill-opacity:1;fill-rule:evenodd;stroke:none;stroke-width:0.99999994px;stroke-linecap:butt;stroke-linejoin:miter;stroke-opacity:1"
       d="m 38.094093,11.837778 c 0,0 0.187999,2.293615 0.114887,3.897441 0,0 3.450352,-0.934771 5.382817,1.338924 2.338473,2.751424 -4.175913,10.290211 -12.710938,15.666016 v 4.769531 c 2.27203,-1.332326 2.965635,-1.839392 5.308594,-3.558594 C 49.968718,23.840207 50.067358,15.119434 45.042969,12.988205 42.166804,11.861941 41.093595,11.663437 38.094093,11.837778 Z M 10.023015,24.509117 c -3.959108,3.588057 -11.630677,11.705434 -9.70074938,16.96737 1.73097648,4.719494 7.49844028,5.26792 17.28515638,1.65625 v -4.47461 C 10.718453,41.416764 6.2878462,42.480194 4.4335938,40.431565 2.0221256,37.767316 12.157538,28.101251 12.431218,27.847007 Z"
       id="path4442"
       inkscape:connector-curvature="0"
       sodipodi:nodetypes="cccccccccsccccc" />
  </g>
</svg>
